<?xml version="1.0" encoding="UTF-8"?>
<svg width="640px" height="640px" viewBox="0 0 640 640" version="1.1" xmlns="http://www.w3.org/2000/svg" xmlns:xlink="http://www.w3.org/1999/xlink">
    <title>onion-intercepter-logo</title>
    <g id="onion-intercepter-logo" stroke="none" stroke-width="1" fill="none" fill-rule="evenodd" stroke-linecap="round">
        <path d="M153.622158,251.185881 C144.844139,272.385673 140,295.627132 140,320 C140,358.664525 152.1907,394.48176 172.93812,423.817724 C187.970497,445.072862 207.494819,462.925585 230.128879,475.993686 C256.575336,491.26293 287.267342,500 320,500 C419.411255,500 500,419.411255 500,320 C500,220.588745 419.411255,140 320,140 C297.662237,140 276.274829,144.068953 256.538526,151.506107" id="路径" stroke="#765BE8" stroke-width="24"></path>
        <path d="M269.345,428.816133 C284.734711,435.992411 301.899344,440 320,440 C386.27417,440 440,386.27417 440,320 C440,253.72583 386.27417,200 320,200 C253.72583,200 200,253.72583 200,320 C200,340.279475 205.030463,359.384023 213.91162,376.133874" id="路径" stroke="#FFA000" stroke-width="24"></path>
        <path d="M376.735093,277.591977 C363.715815,262.530546 344.470897,253 323,253 C283.787783,253 252,284.787783 252,324 C252,363.212217 283.787783,395 323,395 C342.263145,395 359.734551,387.328649 372.525836,374.874328" id="路径" stroke="#FFB450" stroke-width="20"></path>
        <path d="M351.461801,299.737342 C345.777328,293.161225 337.374617,289 328,289 C310.879173,289 297,302.879173 297,320 C297,337.120827 310.879173,351 328,351 C336.410669,351 344.039029,347.650537 349.623956,342.212735" id="路径" stroke="#FFC780" stroke-width="14" transform="translate(324.2309, 320) scale(-1, 1) rotate(30) translate(-324.2309, -320)"></path>
    </g>
</svg>